<svg width="82" height="64" viewBox="0 0 82 64" fill="none" xmlns="http://www.w3.org/2000/svg">
<g filter="url(#filter0_dd_214_7862)">
<path d="M20.4229 49.1456C19.8448 49.6002 19.2902 50.0178 18.6782 50.3265C18.0186 50.6588 17.3413 50.9279 16.6316 51.1328C15.4892 51.4625 14.3371 51.4308 13.1802 51.4132C12.8218 51.408 12.4682 51.2884 12.1178 51.2137C11.2709 51.0343 10.4571 50.7133 9.68931 50.2781C8.46861 49.587 7.39162 48.6971 6.49225 47.5505C5.86899 46.7565 5.36036 45.8887 4.94862 44.9522C4.72095 44.4343 4.58855 43.8734 4.40771 43.3352C4.00081 41.654 4.10657 38.9757 4.1978 38.3295C4.3189 37.4713 4.57644 36.6509 4.88565 35.8631C5.18033 35.1104 5.58319 34.4061 6.04418 33.7484C6.66421 32.8647 7.37144 32.0795 8.21753 31.4007C7.94627 31.1466 7.68307 30.9074 7.42715 30.6594C6.70135 29.9542 6.05225 29.1708 5.5404 28.2713C5.13592 27.5608 4.64103 26.6086 4.40851 25.7979C4.15097 25.1472 4.00161 23.8652 4.00161 23.4906C4 20.0614 4.00161 16.633 4 13.2038C4 12.8521 4.02099 12.5338 4.21072 12.2041C4.59097 11.5428 5.03501 10.9854 5.67523 10.6161C6.13783 10.3497 6.63838 10.2705 7.14297 10.26C8.24417 10.2371 9.347 10.2485 10.449 10.2538C11.5333 10.2591 12.4076 10.7471 13.0672 11.6721C13.269 11.9561 13.3982 12.2929 13.5242 12.6358C13.6832 13.0719 13.6041 13.5168 13.6776 13.9925C14.4978 13.7208 15.314 13.8079 16.1585 13.8483C16.1448 13.6769 16.1787 13.479 16.1916 13.2794C16.2707 12.0669 16.8988 11.2606 17.8144 10.6644C18.3302 10.3286 18.9035 10.2617 19.4839 10.2556C20.4891 10.245 21.4942 10.2503 22.4993 10.2538C22.9716 10.2556 23.4334 10.3154 23.8847 10.4895C24.1164 10.5792 24.3207 10.7172 24.5088 10.8667C24.6767 11.0012 24.7324 10.9361 24.814 10.7963C25.3234 9.9232 25.9596 9.17141 26.6846 8.50931C27.6308 7.64497 28.6722 6.95824 29.8493 6.52388C30.19 6.39814 30.559 6.2768 30.8852 6.21437C32.7937 5.91981 34.0782 5.93827 35.4837 6.21173C36.3928 6.37967 37.2244 6.77359 38.0228 7.25632C38.751 7.69597 39.4365 8.20595 40.0355 8.84168C40.7468 9.59699 41.3975 10.4059 41.89 11.3538C42.3057 12.1548 42.6529 12.984 42.8773 13.8774C43.017 14.4348 43.1874 14.98 43.1704 15.5682C43.1664 15.7116 43.2253 15.7916 43.3634 15.7916C43.4723 15.7916 43.5813 15.7933 43.6903 15.7933C49.8301 15.7933 55.9691 15.7837 62.1089 15.8012C63.3587 15.8048 64.3606 16.3948 65.0218 17.5844C65.2729 18.0364 65.4206 18.5182 65.4118 19.0652C65.3932 20.2513 65.3988 21.4392 65.4085 22.6254C65.415 23.4203 65.113 24.0718 64.6424 24.6381C64.1975 25.1718 63.9424 25.3292 63.2707 25.6352C63.5605 25.6563 68.256 26.7334 68.5878 26.7906C69.5397 26.9559 70.4826 27.1731 71.3852 27.5248C72.4283 27.931 73.3882 28.5307 74.2561 29.2948C75.5656 30.4475 76.5538 31.8632 77.2489 33.5303C77.4379 33.9831 77.5912 34.4465 77.6938 34.9301C77.6962 34.9424 78.0207 36.3414 77.9989 37.8458C77.9739 39.5446 77.6017 41.3771 77.5686 41.4984C77.3151 42.4392 76.8816 43.2719 76.3948 44.08C75.5253 45.522 74.3918 46.673 73.0314 47.5435C72.4243 47.9321 71.7776 48.2478 71.1035 48.501C70.6514 48.6707 70.1823 48.7552 69.7318 48.9231C69.4848 49.0145 69.207 48.9723 68.943 49.0172C68.2003 49.142 67.4592 49.1078 66.7099 48.9996C66.2942 48.9398 65.8776 48.8616 65.4715 48.7719C65.1356 48.6971 64.7909 48.6435 64.4551 48.5459C64.0037 48.414 63.5347 48.3525 63.0737 48.261C63.0503 48.2566 63.0212 48.2672 63.0018 48.2557C62.5021 47.9524 62.05 48.2232 61.5801 48.3762C61.2604 48.4808 60.9238 48.5459 60.6129 48.6611C60.3053 48.7754 59.9832 48.8457 59.6772 48.909C59.2324 49.0014 58.7819 49.1508 58.3209 49.1209C57.9156 49.0946 57.5378 49.2722 57.1374 49.2722C56.0353 49.2713 54.9341 49.2836 53.8321 49.2871C52.827 49.2898 51.8218 49.2924 50.8167 49.2845C50.5906 49.2827 50.4058 49.3381 50.2144 49.4841C49.5032 50.024 48.7394 50.4522 47.9248 50.7907C45.3494 51.4598 42.5455 51.3033 40.4424 50.5515C39.7675 50.2394 39.1297 49.8464 38.5419 49.3645C38.4556 49.2933 38.3659 49.288 38.2691 49.288C37.6514 49.288 37.0338 49.2898 36.4162 49.2863C36.2814 49.2854 36.2176 49.3205 36.1643 49.4841C36.0222 49.9141 35.9278 50.359 35.7905 50.7907C35.5491 51.5522 35.2084 52.2547 34.8088 52.9239C34.3341 53.7196 33.7835 54.4494 33.1336 55.0895C32.4328 55.7798 31.6828 56.3935 30.8343 56.8508C30.1723 57.2069 29.4772 57.468 28.7764 57.7248C28.5398 57.8109 27.563 58.0017 26.6458 58C25.7513 57.9982 24.9149 57.8057 24.8237 57.7388C24.5338 57.5287 24.2287 57.3467 23.9808 57.0715C23.5771 56.6248 23.3018 56.1148 23.1428 55.5002C23.0516 55.1458 23.0289 54.8064 23.0273 54.4538C23.0241 53.7548 23.0225 53.0558 23.0306 52.3567C23.0322 52.1905 23.0144 52.0929 22.8352 52.0542C21.9148 51.8538 21.2455 51.2673 20.7894 50.3933C20.5924 50.0222 20.3785 49.6459 20.4229 49.1456ZM29.7912 41.8765C29.7856 41.8765 29.7799 41.8765 29.7743 41.8765C29.7743 43.5911 29.7936 45.3057 29.7678 47.0203C29.7476 48.3577 29.2148 49.4225 28.1983 50.1928C27.6663 50.5955 27.0745 50.7969 26.4343 50.8391C26.2615 50.8505 26.2034 50.9261 26.2082 51.1073C26.2155 51.3842 26.2292 51.6638 26.201 51.9373C26.1178 52.7533 26.1913 53.571 26.1582 54.387C26.1509 54.5708 26.2341 54.6543 26.3972 54.6534C26.4819 54.6534 26.5667 54.6569 26.6515 54.6499C27.6889 54.5576 28.673 54.2639 29.5845 53.7082C31.1128 52.7779 32.1938 51.422 32.8139 49.638C33.2006 48.5265 33.3524 47.3747 33.2797 46.1859C33.2611 45.8781 33.2765 45.8676 33.5526 45.8667C35.4781 45.8649 37.4036 45.8676 39.3291 45.8641C39.4849 45.8641 39.606 45.9098 39.7206 46.025C40.05 46.3565 40.4142 46.6405 40.7952 46.8981C42.1846 47.8389 43.7081 48.203 45.3147 47.984C46.7203 47.7923 47.9926 47.1874 49.0607 46.1384C49.2472 45.9546 49.4426 45.8614 49.7082 45.8632C51.5611 45.8764 53.4139 45.8685 55.2667 45.872C56.1387 45.8737 57.0066 45.8526 57.8752 45.7357C59.1048 45.5704 60.3078 45.2916 61.4631 44.8036C61.8797 44.6278 62.2615 44.5636 62.7161 44.677C63.9045 44.9742 65.1106 45.1861 66.3063 45.4543C67.4131 45.7032 68.5152 45.7269 69.6139 45.4253C70.9251 45.0657 72.0481 44.3491 72.9846 43.2825C74.6202 41.4184 75.2266 39.1929 74.8778 36.672C74.6493 35.0198 73.9275 33.6068 72.8344 32.44C71.7954 31.3312 70.5375 30.6568 69.1069 30.3666C68.2754 30.1978 67.443 30.036 66.6131 29.8575C65.4634 29.6113 64.317 29.3475 63.1682 29.1013C61.9362 28.8367 60.7009 28.5878 59.4689 28.3223C58.6398 28.1438 57.8123 27.953 56.9823 27.778C56.2598 27.6259 55.5372 27.4685 54.8138 27.3173C54.5345 27.2592 54.5353 27.2452 54.4739 27.5723C54.2664 28.6802 54.0598 29.7889 53.8539 30.8977C53.8119 31.1255 53.8361 31.1756 54.0493 31.2292C54.2963 31.2916 54.5458 31.3426 54.7961 31.3866C55.1004 31.4394 55.1214 31.4904 54.9357 31.777C54.9285 31.7876 54.9228 31.799 54.9156 31.8095C53.8854 33.3747 53.384 35.1034 53.5374 37.0404C53.6254 38.1474 53.9153 39.1824 54.4247 40.1434C54.7032 40.6692 55.0044 41.1783 55.4064 41.6074C55.4484 41.6523 55.496 41.7033 55.4767 41.7771C55.4549 41.8598 55.387 41.8528 55.3281 41.8501C54.8203 41.829 54.3133 41.8624 53.8063 41.8879C53.0813 41.9249 52.3555 41.88 51.6305 41.8431C51.3843 41.8308 51.3794 41.822 51.4254 41.5301C51.5401 40.7976 51.5554 40.066 51.4545 39.3292C51.2163 37.59 50.5349 36.1022 49.3796 34.8659C48.125 33.5233 46.6105 32.8137 44.8755 32.6695C43.5926 32.5631 42.3671 32.8744 41.232 33.5224C38.5605 35.0471 37.0209 38.2099 37.4835 41.4958C37.5255 41.7956 37.4932 41.8413 37.2066 41.8413C36.0077 41.844 34.8088 41.8431 33.6099 41.8396C33.2781 41.8387 33.2724 41.8176 33.2741 41.4536C33.2805 39.8708 33.2829 38.2881 33.2829 36.7054C33.2829 36.3862 33.2636 36.366 32.9745 36.3651C32.0057 36.3616 31.0369 36.3616 30.0681 36.3651C29.7985 36.366 29.7912 36.3818 29.7912 36.6896C29.7912 38.4218 29.7912 40.1487 29.7912 41.8765ZM19.2603 18.4118C19.2546 18.4118 19.249 18.4118 19.2433 18.4118C19.2433 19.7967 19.2393 21.1807 19.2441 22.5656C19.2482 23.7324 18.8397 24.6996 18.0299 25.4461C17.426 26.0027 16.7358 26.3659 15.9123 26.336C15.6967 26.3281 15.4795 26.35 15.2624 26.3703C14.6472 26.4274 14.0271 26.4204 13.4216 26.2797C12.5747 26.0827 11.8788 25.5939 11.3371 24.8623C10.9197 24.2987 10.6218 23.6673 10.6032 22.9235C10.5855 22.213 10.562 21.5017 10.5532 20.7921C10.5249 18.5508 10.5306 16.3086 10.5209 14.0673C10.5193 13.6769 10.5031 13.6593 10.1568 13.6575C9.58758 13.6549 9.01841 13.6567 8.44924 13.6567C8.06172 13.6567 7.67419 13.6611 7.28667 13.6549C7.11955 13.6523 7.03559 13.7191 7.04608 13.9073C7.05012 13.9864 7.04608 14.0655 7.04689 14.1447C7.06546 16.2532 7.08645 18.3617 7.10341 20.4711C7.10906 21.1702 7.11148 21.8692 7.10663 22.5674C7.10098 23.3825 7.22935 24.1826 7.50465 24.9256C8.66641 28.0585 10.7905 29.8311 13.9036 30.1055C14.757 30.1811 15.6184 30.153 16.4758 30.0589C18.3981 29.8479 19.9481 28.8789 21.1527 27.2715C22.136 25.9579 22.6616 24.4332 22.6794 22.7203C22.6826 22.4047 22.7149 22.373 22.9845 22.373C24.6073 22.3748 26.23 22.3862 27.852 22.3721C28.2565 22.3686 28.6181 22.4038 28.8951 22.7713C28.9621 22.8602 29.0646 22.9182 29.1542 22.9859C30.7463 24.1905 32.4958 24.6768 34.4132 24.289C36.2693 23.9127 37.7475 22.8707 38.8471 21.1939C39.9774 19.4705 40.3496 17.5484 40.0048 15.4917C39.6972 13.6549 38.8625 12.11 37.4948 10.9537C35.9092 9.61193 34.1113 9.03776 32.1163 9.39915C29.9503 9.79131 28.2952 11.039 27.1811 13.108C26.5231 14.3293 26.2284 15.6614 26.2397 17.0709C26.2422 17.4086 26.2639 17.7533 26.3528 18.0847C26.3915 18.2281 26.377 18.3987 26.2179 18.3705C26.0056 18.3327 25.8118 18.4048 25.6084 18.4022C24.7155 18.3916 23.8218 18.389 22.9288 18.3811C22.7658 18.3793 22.6979 18.2914 22.706 18.1032C22.7666 16.7333 22.7197 15.3625 22.7335 13.9917C22.7367 13.6716 22.723 13.6593 22.4259 13.6584C21.6993 13.6549 20.9727 13.6567 20.2461 13.6567C20.0039 13.6567 19.7617 13.6619 19.5195 13.6558C19.3321 13.6505 19.2546 13.7481 19.2587 13.9433C19.2603 14.0224 19.2579 14.1016 19.2579 14.1807C19.2603 15.5902 19.2603 17.0015 19.2603 18.4118ZM20.5682 40.387C20.5892 36.6201 17.7821 33.547 14.4284 33.4389C10.8559 33.3237 7.87199 36.3818 7.86553 40.3158C7.85907 44.1714 10.5984 47.2384 14.1805 47.2683C17.8022 47.2973 20.5472 44.0967 20.5682 40.387ZM23.5311 37.801C23.5311 41.2557 23.5311 44.7113 23.5311 48.166C23.5311 48.2584 23.5279 48.3507 23.5319 48.443C23.5432 48.7112 23.5521 48.727 23.8113 48.7305C24.2472 48.7358 24.6832 48.7332 25.1191 48.7297C25.3274 48.7279 25.526 48.6716 25.7166 48.5802C26.3536 48.2733 26.821 47.7897 27.0632 47.0643C27.198 46.6625 27.2344 46.2448 27.2352 45.8236C27.2368 39.9948 27.2368 34.166 27.236 28.3381C27.236 27.9574 27.2473 27.5767 27.1932 27.1959C27.148 26.8785 27.1641 26.8811 26.8678 26.8829C25.8869 26.8873 24.906 26.8908 23.9259 26.8873C23.5343 26.8864 23.5343 26.8776 23.5319 27.3173C23.5319 27.3832 23.5319 27.4492 23.5319 27.5151C23.5311 30.9434 23.5311 34.3718 23.5311 37.801ZM15.1211 21.7523C16.3087 21.8578 17.2315 20.5907 17.2347 19.4907C17.2387 18.2184 16.1537 17.194 15.13 17.1888C14.1975 17.1844 13.001 18.0548 13.005 19.5004C13.0091 20.8765 14.2023 21.8982 15.1211 21.7523ZM53.4091 20.8246C53.4099 20.8246 53.4115 20.8246 53.4123 20.8246C53.4123 20.9829 53.4123 21.1403 53.4123 21.2985C53.4123 21.47 53.4163 21.6406 53.4131 21.812C53.4026 22.4399 53.384 22.3651 53.9136 22.3704C54.2132 22.373 54.235 22.3326 54.2269 22.0046C54.2156 21.5175 54.2051 21.0304 54.2188 20.5432C54.2293 20.1555 54.5127 19.9163 54.8235 19.9981C55.0447 20.0561 55.1941 20.2689 55.2046 20.603C55.2183 21.0374 55.2183 21.4726 55.207 21.907C55.1949 22.3651 55.1868 22.3651 55.5937 22.3678C55.6058 22.3678 55.6179 22.3678 55.63 22.3678C56.003 22.3695 56.0143 22.3572 56.0143 21.9492C56.0143 21.4621 56.0087 20.9741 56.0168 20.487C56.0216 20.2117 56.1798 20.0201 56.3954 19.9902C56.6433 19.955 56.8298 20.093 56.9153 20.37C56.9549 20.4975 56.9597 20.6276 56.9589 20.7595C56.9573 21.1016 56.9597 21.4445 56.9581 21.7865C56.9557 22.4794 56.9315 22.3502 57.5119 22.3695C57.7275 22.3765 57.7582 22.3361 57.7598 22.089C57.7638 21.5096 57.7687 20.9301 57.7566 20.3507C57.7469 19.8794 57.4143 19.4432 57.0074 19.2902C56.6344 19.1504 56.288 19.2428 55.9611 19.4221C55.7915 19.5153 55.6704 19.5364 55.4968 19.4257C55.1868 19.2278 54.851 19.1276 54.499 19.3307C54.4134 19.3799 54.3076 19.4301 54.2277 19.3412C54.067 19.1619 53.8684 19.2138 53.6811 19.2164C53.443 19.219 53.4147 19.2533 53.4115 19.5206C53.405 19.955 53.4091 20.3902 53.4091 20.8246ZM43.0759 20.7798C43.0768 20.7798 43.0776 20.7798 43.0784 20.7798C43.0784 21.1754 43.0776 21.5711 43.0784 21.9668C43.0792 22.373 43.08 22.373 43.4699 22.366C43.482 22.366 43.4941 22.366 43.5063 22.3651C43.8671 22.3581 43.8744 22.3528 43.8768 21.9686C43.8801 21.4806 43.872 20.9925 43.8792 20.5045C43.8841 20.1898 44.0552 19.9963 44.3152 19.9866C44.6018 19.9761 44.8036 20.1599 44.8351 20.4694C44.8456 20.574 44.8392 20.6804 44.8392 20.7859C44.8392 21.2212 44.8408 21.6564 44.8384 22.0917C44.8376 22.2411 44.8779 22.3792 45.0297 22.3616C45.2243 22.3387 45.4431 22.4715 45.6126 22.2772C45.6401 22.2455 45.636 22.1769 45.6384 22.1251C45.6425 22.0327 45.6392 21.9404 45.6392 21.8481C45.6392 21.3997 45.6328 20.9512 45.6425 20.5028C45.6481 20.2381 45.8435 20.0148 46.0615 19.9875C46.3093 19.9559 46.4958 20.0904 46.5822 20.37C46.6048 20.4448 46.6298 20.523 46.6298 20.6004C46.6298 20.982 46.6613 21.3654 46.6121 21.7452C46.5346 22.3352 46.5701 22.3827 47.1159 22.3678C47.3605 22.3616 47.3839 22.3423 47.3855 22.0741C47.3887 21.5069 47.3887 20.9398 47.3823 20.3727C47.3766 19.8706 47.1361 19.5347 46.7292 19.3263C46.3416 19.1285 45.9686 19.2181 45.6166 19.4221C45.4479 19.5197 45.3171 19.5408 45.1484 19.4283C44.8093 19.2023 44.4516 19.1443 44.0859 19.3703C44.0076 19.4186 43.9204 19.4529 43.8583 19.358C43.7355 19.1733 43.5603 19.2102 43.3948 19.2138C43.109 19.219 43.0816 19.248 43.0784 19.5523C43.0727 19.9629 43.0759 20.3718 43.0759 20.7798ZM50.7126 20.8659C50.7134 20.8659 50.715 20.8659 50.7158 20.8659C50.7158 20.4448 50.7142 20.0227 50.7166 19.6015C50.719 19.212 50.7206 19.212 50.3549 19.2102C50.3186 19.2102 50.2822 19.2094 50.2459 19.2094C49.9254 19.2146 49.9214 19.2155 49.9206 19.5628C49.9189 20.05 49.9197 20.538 49.9246 21.0251C49.9262 21.1904 49.9076 21.3363 49.776 21.4463C49.5976 21.5966 49.4014 21.6327 49.1956 21.5483C48.9905 21.4647 48.9033 21.273 48.8985 21.0488C48.888 20.6276 48.8864 20.2056 48.8936 19.7844C48.9041 19.1311 48.9081 19.2173 48.3293 19.2076C48.1606 19.205 48.0887 19.2841 48.0903 19.467C48.0952 20.0728 48.0734 20.6804 48.1008 21.2845C48.1291 21.9096 48.6546 22.3941 49.2295 22.3783C49.4039 22.3739 49.5605 22.322 49.7106 22.2262C49.8108 22.1629 49.9109 22.1726 49.9173 22.3264C49.9319 22.6755 49.6525 23.1609 49.1818 22.963C49.0922 22.9252 49.001 22.8786 48.9283 22.8118C48.7515 22.6509 48.5448 22.6746 48.3406 22.679C48.2025 22.6817 48.1622 22.7617 48.2389 22.8821C48.4552 23.2207 48.7007 23.5275 49.072 23.6726C49.1391 23.699 49.2133 23.7016 49.2844 23.7131C49.9222 23.8115 50.7004 23.0765 50.7109 22.2491C50.7174 21.7874 50.7126 21.3267 50.7126 20.8659ZM60.9318 21.3865C60.4789 21.3126 60.4507 21.3152 60.0882 21.543C59.8992 21.6617 59.7039 21.7021 59.4972 21.6186C59.079 21.4489 58.8925 20.9055 59.0871 20.4342C59.2695 19.9919 59.7249 19.8257 60.1188 20.101C60.3352 20.2513 60.5524 20.2452 60.7793 20.2381C60.9448 20.2328 60.9795 20.1616 60.8899 20.0165C60.6129 19.5672 60.0438 19.0599 59.3801 19.2806C58.8578 19.4547 58.4388 19.7404 58.3177 20.3436C58.1909 20.9776 58.2539 21.5773 58.7795 22.0187C59.5174 22.6377 60.5362 22.475 60.9318 21.3865ZM62.2906 20.9433C62.2906 20.4087 62.2833 20.0139 62.293 19.6191C62.3011 19.2841 62.3067 19.2797 62.0209 19.2735C61.9483 19.2718 61.8756 19.2727 61.8038 19.2744C61.5478 19.2815 61.5398 19.2823 61.5381 19.5646C61.5341 20.3146 61.5357 21.0655 61.5365 21.8156C61.5373 22.4434 61.476 22.3625 62.0766 22.3686C62.2704 22.3704 62.3293 22.2877 62.3075 22.0662C62.2656 21.645 62.3027 21.2247 62.2906 20.9433ZM62.3269 18.6264C62.3213 18.4092 62.0831 18.1718 61.8885 18.1885C61.7125 18.2034 61.5058 18.4593 61.5115 18.6536C61.5172 18.8445 61.715 19.0335 61.9095 19.0335C62.1154 19.0326 62.3318 18.8216 62.3269 18.6264Z" fill="white"/>
<path d="M74.969 37.2908L74.9594 37.1264C74.9481 36.9224 74.9279 36.743 74.8988 36.5786C74.7955 35.9991 74.651 35.4768 74.4572 34.9827C74.1528 34.2054 73.7548 33.5055 73.2744 32.9023C72.6439 32.1118 71.8923 31.4787 71.0397 31.0224C70.6215 30.7982 70.2308 30.6346 69.8441 30.5221C69.5308 30.4306 69.1925 30.3541 68.7469 30.2732C68.4183 30.2134 68.0865 30.1352 67.7652 30.0596C67.5682 30.0129 67.3655 29.9655 67.1645 29.9224C66.8779 29.8608 66.5857 29.8019 66.3039 29.7456C66.0924 29.7034 65.8808 29.6612 65.6693 29.6173C65.4312 29.568 65.1938 29.5153 64.9556 29.4634C64.8039 29.43 64.6513 29.3966 64.4995 29.364L64.4543 29.3544C63.856 29.226 63.2376 29.0932 62.6281 28.9692C62.0783 28.8576 61.522 28.7336 60.9835 28.614C60.7769 28.5683 60.5694 28.5217 60.3627 28.476C60.3021 28.4628 60.2416 28.4469 60.181 28.4311C60.0737 28.403 59.9623 28.374 59.8508 28.359C59.5344 28.3186 59.2179 28.2438 58.9111 28.1708C58.6318 28.1049 58.3427 28.0363 58.0529 27.9932C57.8139 27.9581 57.5733 27.8965 57.3408 27.8367C57.1559 27.7892 56.9646 27.74 56.7733 27.7039C56.4907 27.6503 56.2041 27.5861 55.9272 27.5237C55.7504 27.4841 55.5736 27.4445 55.396 27.4067C55.3257 27.3918 55.2547 27.3812 55.186 27.3707C55.0504 27.3505 54.9099 27.3285 54.7791 27.2766C54.658 27.2282 54.591 27.2019 54.5369 27.2335C54.4837 27.2643 54.4667 27.3373 54.4336 27.4824L54.428 27.507C54.4263 27.5149 54.4255 27.5228 54.4255 27.5307C54.407 27.6415 54.3892 27.7523 54.3714 27.8631C54.3287 28.126 54.2851 28.3977 54.2374 28.6632C54.2124 28.8066 54.1825 28.9516 54.1543 29.0915C54.126 29.2286 54.0986 29.3649 54.0735 29.503C54.0477 29.6454 54.0251 29.7878 54.0017 29.9312C53.95 30.2495 53.8967 30.5783 53.8168 30.8949C53.7902 31.0013 53.7797 31.0857 53.816 31.149C53.8531 31.2141 53.9314 31.2413 54.038 31.2624C54.3125 31.3169 54.6314 31.3802 54.9495 31.4348C55.0165 31.4462 55.0351 31.4708 55.0326 31.5447C55.031 31.593 55.0165 31.6308 54.9858 31.6678C54.8696 31.8041 54.763 31.9632 54.6379 32.1822C54.1074 33.1177 53.7926 33.9302 53.6473 34.74C53.5278 35.4039 53.4252 36.1196 53.4785 36.8547C53.5181 37.4025 53.6222 37.9292 53.7086 38.3275C53.8564 39.0089 54.1187 39.6825 54.4877 40.3287L54.5386 40.4184C54.7808 40.8431 55.0318 41.2828 55.3935 41.6231C55.421 41.6494 55.4412 41.6837 55.4533 41.7259C55.4662 41.7725 55.4638 41.8112 55.4468 41.8314C55.4315 41.849 55.4032 41.8534 55.3669 41.8429C55.2539 41.8121 55.1424 41.8139 55.0351 41.8156L54.9729 41.8165C54.7533 41.8174 54.5305 41.8244 54.3149 41.8314C54.2059 41.835 54.0961 41.8385 53.9871 41.8411C53.1071 41.8631 52.3103 41.8543 51.5522 41.8156H51.5336C51.4925 41.813 51.4432 41.8077 51.4295 41.7884C51.415 41.7681 51.4214 41.711 51.4279 41.6697C51.4731 41.376 51.5159 41.0884 51.5345 40.7904C51.5546 40.4624 51.5571 40.1643 51.5409 39.8794C51.511 39.3439 51.4182 38.7865 51.264 38.222C51.0856 37.5687 50.8619 37.0042 50.5818 36.4977C50.191 35.7934 49.7543 35.2016 49.2465 34.6899C48.7055 34.1447 48.0774 33.6866 47.3799 33.3296C46.8083 33.0368 46.2117 32.8698 45.7031 32.7458L45.6312 32.7282C45.5109 32.6974 45.3866 32.6658 45.259 32.6631C45.0451 32.6587 44.8319 32.6561 44.618 32.6534C44.4573 32.6517 44.2967 32.6499 44.136 32.6473C43.7824 32.6411 43.4231 32.686 43.038 32.7853C42.4115 32.9463 41.9053 33.1318 41.4444 33.3683C40.8736 33.662 40.3335 34.0462 39.8386 34.5123C39.4809 34.849 39.1887 35.1752 38.944 35.5111C38.4564 36.1811 38.1012 36.8415 37.8582 37.53C37.6507 38.12 37.5037 38.761 37.3956 39.5471C37.3592 39.8108 37.3608 40.0764 37.3616 40.3331C37.3625 40.4369 37.3625 40.5407 37.3608 40.6444C37.356 40.9258 37.3875 41.2142 37.4585 41.5272C37.4868 41.653 37.4884 41.7251 37.4618 41.762C37.4351 41.7989 37.3705 41.8147 37.251 41.8147L33.5308 41.8139H33.5034C33.4816 41.8139 33.4598 41.8147 33.4388 41.8121C33.3686 41.8042 33.3209 41.7822 33.2951 41.7453C33.2717 41.7119 33.266 41.6617 33.2773 41.5976C33.3064 41.4279 33.3064 41.2573 33.3064 41.1069L33.308 38.3336C33.308 37.7674 33.308 37.2011 33.3072 36.6357C33.3064 36.3869 33.2442 36.3183 33.0174 36.3183C32.0033 36.3174 30.9893 36.3166 29.9753 36.3183C29.8784 36.3183 29.8114 36.3447 29.7719 36.3983C29.7331 36.4502 29.7242 36.5232 29.7436 36.6208C29.7606 36.707 29.7606 36.7923 29.7606 36.8828C29.7606 37.122 29.7533 37.3664 29.7452 37.6021C29.7388 37.821 29.7315 38.047 29.7307 38.2695C29.7202 40.7297 29.7226 43.2304 29.7242 45.6493L29.725 47.1696C29.725 47.3674 29.7073 47.553 29.6709 47.7218C29.4312 48.8411 28.9193 49.6553 28.1055 50.2093C27.8213 50.4027 27.4782 50.6111 27.0794 50.6947C26.8533 50.7421 26.6103 50.7861 26.3593 50.7923C26.2026 50.7958 26.159 50.8424 26.1574 51.0086L26.1558 51.1299C26.1518 51.4895 26.1477 51.8615 26.1348 52.2273C26.1162 52.746 26.1179 53.2745 26.1203 53.7845C26.1211 53.9902 26.1219 54.1951 26.1211 54.4009C26.1203 54.6057 26.1703 54.662 26.3609 54.6761C26.3794 54.677 26.3972 54.6778 26.4158 54.6778C26.4828 54.6778 26.549 54.6699 26.6136 54.6629C26.6741 54.6558 26.7306 54.6488 26.7879 54.6479C27.4298 54.6383 28.0385 54.4351 28.5488 54.2364C29.6823 53.7968 30.6777 53.0599 31.5068 52.0444C32.0179 51.4183 32.4393 50.6656 32.7962 49.7424C32.9512 49.3397 33.0416 48.9115 33.1296 48.4973C33.1473 48.4129 33.1651 48.3285 33.1837 48.2441C33.2733 47.8317 33.3137 47.4545 33.3064 47.0905C33.2999 46.7722 33.2975 46.4486 33.2959 46.1356L33.2951 46.0582C33.2943 45.9782 33.2951 45.9113 33.3137 45.8911C33.3306 45.8727 33.3895 45.8709 33.4582 45.8709C33.5219 45.8709 33.5857 45.8718 33.6495 45.8718C33.7763 45.8727 33.9079 45.8735 34.037 45.8709C34.2938 45.8647 34.5553 45.8744 34.8088 45.8832C34.9929 45.8902 35.1835 45.8964 35.3708 45.8973C36.2725 45.9008 37.1889 45.9008 38.0753 45.8999L39.0328 45.899C39.1128 45.899 39.2121 45.899 39.3098 45.8788C39.4454 45.8498 39.5608 45.8902 39.6626 45.9993C39.9928 46.3536 40.3875 46.671 40.9422 47.028C41.873 47.6268 42.9202 47.9715 44.0537 48.0533C44.6002 48.0929 45.1726 48.0498 45.7547 47.9267C46.3336 47.8044 46.8971 47.6031 47.4275 47.3305C48.1008 46.9849 48.6644 46.5743 49.1512 46.0749C49.2739 45.9492 49.4112 45.892 49.5888 45.8946C50.5705 45.8999 51.5692 45.8999 52.5347 45.8999C53.4067 45.8999 54.2778 45.8999 55.1497 45.9034C56.1516 45.9078 56.9896 45.8867 57.8373 45.7707C57.8914 45.7636 57.9455 45.7592 57.9996 45.7548C58.086 45.7478 58.1748 45.7408 58.2628 45.7214C58.6205 45.6423 58.97 45.5693 59.3568 45.4893C59.4084 45.4787 59.4601 45.4682 59.5118 45.4576C59.7733 45.4058 60.043 45.3521 60.3005 45.2466C60.4144 45.2 60.5347 45.1622 60.6509 45.1261C60.7115 45.1068 60.7728 45.0883 60.8326 45.0681C61.1749 44.9529 61.539 44.8237 61.8918 44.661C62.0403 44.5924 62.1711 44.5792 62.3148 44.6188L62.4125 44.646C62.5708 44.69 62.7347 44.7357 62.9002 44.7647L63.0011 44.7823C63.3297 44.8386 63.6687 44.8975 63.9989 44.9775C64.2662 45.0426 64.6198 45.1261 64.9815 45.1947C65.2988 45.2545 65.5418 45.3108 65.7694 45.3759C65.8566 45.4005 65.947 45.4198 66.0391 45.433C66.2466 45.4629 66.4565 45.5007 66.6591 45.5368C66.9296 45.5851 67.2097 45.6361 67.4874 45.6678C67.7781 45.7012 68.0671 45.7012 68.344 45.6687C68.4837 45.6519 68.625 45.6264 68.7606 45.6027C68.8866 45.5798 69.0165 45.557 69.1441 45.5412C69.6237 45.4805 70.0758 45.3125 70.4915 45.1402C70.9977 44.9301 71.4926 44.6355 72.0053 44.2398C72.539 43.8274 73.0217 43.3289 73.4811 42.7143C73.8654 42.1999 74.1423 41.6248 74.3409 41.1817C74.7656 40.2311 74.9795 39.2147 74.9949 38.0751C75.0005 37.8131 74.9844 37.5476 74.969 37.2908ZM67.376 37.6891C67.481 36.9461 67.5052 36.2849 67.4503 35.6676C67.4116 35.235 67.3575 34.8534 67.2848 34.5017C67.2719 34.4402 67.2533 34.3804 67.2356 34.3223C67.221 34.2749 67.2057 34.2274 67.1944 34.179C67.179 34.1148 67.1879 34.1016 67.1887 34.0999C67.1903 34.0981 67.1976 34.0911 67.2299 34.0911C67.2396 34.0911 67.2517 34.092 67.2662 34.0937C67.2937 34.0964 67.3139 34.1016 67.33 34.1087C67.5561 34.2115 67.7958 34.2494 68.0284 34.2872C68.1236 34.3021 68.2221 34.3179 68.3174 34.3382C68.7106 34.4208 69.0343 34.5087 69.3387 34.6732C70.1509 35.1128 70.7249 35.7995 71.0438 36.7158C71.1802 37.107 71.2432 37.5124 71.2375 37.9555V37.9573C71.269 39.4099 70.4205 40.771 69.1247 41.3434C68.8696 41.456 68.5911 41.5026 68.3214 41.5483L68.2706 41.5571C67.9121 41.6178 67.5722 41.5554 67.2121 41.4894C67.1363 41.4753 67.0596 41.4613 66.9837 41.449C66.8553 41.4279 66.7253 41.3971 66.6002 41.3681C66.4226 41.3267 66.2385 41.2837 66.0528 41.2643C65.981 41.2573 65.9438 41.2353 65.9277 41.1922C65.9148 41.1562 65.9317 41.1315 65.9737 41.0823L65.9818 41.0726C66.3475 40.6391 66.597 40.1247 66.7939 39.6798C67.091 39.0037 67.2816 38.3521 67.376 37.6891ZM63.6913 36.7659C63.6163 37.4104 63.4564 37.9028 63.1876 38.3161C62.6951 39.0722 62.117 39.562 61.4203 39.8135C61.3105 39.8531 61.1926 39.8829 61.0699 39.9014L61.0078 39.9111C60.797 39.9445 60.5976 39.9753 60.4216 39.9559H60.4192H60.4168C59.6183 39.9858 58.9119 39.6719 58.2572 38.9966C57.8535 38.5807 57.5701 38.1112 57.4159 37.6012C57.2254 36.9699 57.1745 36.401 57.2609 35.862C57.3392 35.3713 57.4708 34.9563 57.6638 34.5914C57.9827 33.9873 58.4154 33.5275 58.987 33.1854C59.3341 32.977 59.7378 32.8381 60.2206 32.7598C60.634 32.6921 61.0683 32.751 61.5115 32.9339C62.3851 33.2944 63.0261 33.9372 63.4177 34.8438C63.6768 35.4461 63.7688 36.0923 63.6913 36.7659ZM47.79 40.3701C47.79 41.3179 47.4308 42.2509 46.8051 42.9288C46.177 43.6094 45.343 43.9839 44.4541 43.9839C44.4485 43.9839 44.4428 43.9839 44.4372 43.9839C42.5811 43.9743 41.119 42.3933 41.1085 40.3833C41.0972 38.3433 42.5044 36.7843 44.4509 36.6779C46.3457 36.7553 47.7811 38.3433 47.79 40.3701Z" fill="#0095da"/>
<path d="M26.6272 22.446H27.0615C27.4789 22.446 27.8963 22.4469 28.3129 22.4442C28.3145 22.4442 28.3162 22.4442 28.317 22.4442C28.4348 22.4442 28.5075 22.4706 28.5697 22.5339C28.7763 22.7467 29.0097 22.9261 29.2357 23.1002L29.3512 23.189C29.947 23.6506 30.6163 23.9276 31.1321 24.1175C31.7998 24.3628 32.5329 24.4798 33.3103 24.4657C33.3887 24.4639 33.467 24.4552 33.5429 24.4472C33.6244 24.4384 33.7084 24.4288 33.7899 24.4288C33.7907 24.4288 33.7915 24.4288 33.7931 24.4288C34.0822 24.4288 34.3534 24.3672 34.5803 24.3066C35.0889 24.1711 35.5047 24.0243 35.8874 23.8458C36.836 23.4026 37.6748 22.7476 38.3812 21.8982C38.7276 21.4814 39.036 21.0057 39.2976 20.4834C39.5414 19.9972 39.6988 19.6094 39.807 19.2252C39.8821 18.9578 39.9668 18.6395 40.0242 18.3054C40.0904 17.922 40.1307 17.5097 40.1574 16.968C40.1654 16.8071 40.1533 16.6436 40.142 16.4862C40.1372 16.422 40.1332 16.3578 40.1291 16.2927C40.1089 15.8953 40.0484 15.4724 39.9442 15.0002C39.7795 14.2484 39.4897 13.5186 39.0852 12.8319C38.6097 12.0255 38.1011 11.4013 37.5295 10.9238C36.7682 10.2872 35.9657 9.83612 35.076 9.54595C34.2097 9.2637 33.3241 9.1749 32.4425 9.28393C31.6844 9.37801 30.9578 9.59783 30.2828 9.93724C29.377 10.3936 28.5898 11.0293 27.9432 11.8286C27.5217 12.3491 27.1665 12.9356 26.8565 13.6241C26.6522 14.0769 26.494 14.5799 26.3729 15.1602C26.3608 15.2174 26.3487 15.2745 26.3358 15.3308C26.2841 15.5647 26.2308 15.8074 26.2187 16.05C26.2147 16.1265 26.2098 16.203 26.205 16.2787C26.1872 16.5688 26.1678 16.8687 26.1977 17.1667C26.2074 17.2679 26.209 17.3716 26.2114 17.4727C26.2155 17.7049 26.2195 17.944 26.3196 18.1735C26.3301 18.1973 26.3398 18.2324 26.3236 18.2623C26.3067 18.294 26.2631 18.3142 26.2082 18.3168C26.167 18.3195 26.125 18.3168 26.0806 18.3133C26.0475 18.3116 26.0136 18.3089 25.9805 18.3089C25.9797 18.3089 25.9789 18.3089 25.9781 18.3089C25.4921 18.3107 25.0061 18.3124 24.5201 18.3142L23.4786 18.3186C23.2856 18.3195 23.0919 18.3195 22.8989 18.3177C22.8327 18.3168 22.7835 18.2975 22.756 18.2623C22.7326 18.2324 22.7253 18.1893 22.7334 18.1366C22.7617 17.9563 22.7617 17.7743 22.7617 17.5976V17.5422C22.7641 16.7763 22.7649 16.0105 22.7657 15.2455L22.7681 13.894C22.7681 13.7788 22.7601 13.7032 22.7148 13.654C22.6696 13.6047 22.5986 13.5951 22.4912 13.5942C21.4837 13.5933 20.4761 13.5933 19.4685 13.5942C19.2651 13.5942 19.2263 13.6355 19.2255 13.8545C19.2223 14.5658 19.2167 15.4073 19.2005 16.2549C19.1868 16.9575 19.19 17.6714 19.1932 18.3626C19.1949 18.651 19.1957 18.9394 19.1957 19.2278H19.186V20.0473C19.186 20.7235 19.186 21.3996 19.1852 22.0767V22.2314C19.186 22.4759 19.1868 22.7282 19.1593 22.9753C19.1173 23.349 19.0479 23.7878 18.8501 24.2054C18.662 24.6029 18.4142 24.9581 18.0944 25.2931C17.8078 25.5921 17.5051 25.8154 17.1692 25.9763C16.8318 26.1381 16.525 26.2718 16.1875 26.2788C15.9582 26.2841 15.7249 26.2937 15.4997 26.3034C15.054 26.3228 14.593 26.3421 14.1393 26.3245C13.977 26.3184 13.7881 26.3087 13.6065 26.2753C13.0995 26.1821 12.6191 25.9737 12.1799 25.6554C11.7229 25.3239 11.3475 24.8974 11.0633 24.3874C10.7848 23.8871 10.6379 23.3604 10.625 22.8214C10.6161 22.4513 10.6104 22.0802 10.6048 21.71C10.6007 21.4427 10.5959 21.1754 10.5911 20.9081C10.5789 20.2961 10.5773 19.6736 10.5765 19.0713C10.5749 18.3204 10.5733 17.5431 10.5507 16.779C10.5313 16.1389 10.5362 15.4864 10.541 14.856C10.5434 14.5693 10.545 14.2827 10.545 13.9969L10.5458 13.9538C10.5467 13.9178 10.5467 13.8817 10.5442 13.8457C10.5297 13.6601 10.4675 13.5977 10.298 13.5977C9.27106 13.5968 8.24413 13.5968 7.21719 13.5977C7.03312 13.5977 6.99437 13.6408 6.98791 13.8509C6.98629 13.894 6.9871 13.9371 6.98791 13.9793C6.99517 14.4911 6.99517 15.0116 6.99517 15.5154C6.99517 16.138 6.99517 16.7807 7.0089 17.4138C7.03473 18.5877 7.0315 19.7817 7.02747 20.9362C7.02666 21.3082 7.02505 21.6801 7.02505 22.0512C7.02505 22.7634 7.07106 23.3367 7.17037 23.8555C7.30923 24.5783 7.48684 25.163 7.72904 25.6958C8.01726 26.3298 8.34908 26.8776 8.74306 27.37C9.13058 27.8554 9.51326 28.2493 9.91451 28.5746C10.6137 29.1426 11.3273 29.5445 12.0959 29.803C12.7563 30.0254 13.3659 30.1336 13.9593 30.1336C13.9609 30.1336 13.9625 30.1336 13.9641 30.1336C14.0214 30.1336 14.0804 30.1389 14.1498 30.1503L14.2071 30.16C14.3621 30.1855 14.5204 30.2118 14.681 30.2118C14.7448 30.2118 14.8086 30.2074 14.8732 30.1978C15.1154 30.16 15.402 30.123 15.6934 30.1345C16.06 30.1494 16.4265 30.1292 16.7801 30.0747C17.2572 30.0017 17.7336 29.8628 18.2357 29.6482C18.4408 29.5612 18.6402 29.4521 18.8332 29.3475L18.9728 29.2719C19.4266 29.0283 19.8771 28.6951 20.3502 28.2519C20.7231 27.9028 21.0646 27.4922 21.3666 27.0323C21.7444 26.4573 22.0657 25.8005 22.3507 25.0249C22.4202 24.8359 22.4589 24.6354 22.4969 24.442L22.5243 24.303C22.6349 23.7517 22.7488 23.1819 22.7213 22.599C22.7189 22.5418 22.7245 22.4653 22.7665 22.4284C22.8069 22.3932 22.8707 22.4029 22.9175 22.4161C23.0095 22.4433 23.0943 22.446 23.1952 22.446C24.0914 22.4469 24.9875 22.4469 25.8828 22.446H26.6272ZM29.7363 16.7702C29.7718 14.9571 31.0684 13.1071 33.1812 13.1071C33.2046 13.1071 33.2288 13.1071 33.253 13.1079C35.3561 13.1493 36.6261 15.0521 36.6398 16.8687C36.5946 18.9737 35.0711 20.6206 33.1691 20.6206C33.1674 20.6206 33.1666 20.6206 33.165 20.6206C32.2439 20.6197 31.3784 20.2187 30.7261 19.4933C30.0673 18.7591 29.7161 17.7928 29.7363 16.7702Z" fill="#0095da"/>
<path d="M14.0006 33.3836C12.3286 33.4363 10.8746 34.1292 9.67973 35.4429C8.41382 36.8348 7.82527 38.5177 7.82608 40.7388C7.81397 42.3699 8.48325 44.0212 9.66196 45.268C10.8479 46.5228 12.4537 47.2605 14.0668 47.2922C14.1072 47.293 14.1467 47.293 14.1863 47.293C15.8865 47.293 17.4826 46.5764 18.6928 45.2663C19.9361 43.9201 20.6103 42.1325 20.5893 40.2324C20.5691 38.3419 19.9087 36.6976 18.6266 35.3462C17.3381 33.9885 15.7824 33.3282 14.0006 33.3836ZM14.1088 43.979C12.2995 43.9183 10.877 42.3312 10.8697 40.366C10.8665 39.3891 11.2064 38.4764 11.8272 37.7958C12.4586 37.103 13.3313 36.7047 14.221 36.702C15.1099 36.7099 15.9802 37.1258 16.6107 37.8433C17.238 38.5573 17.5666 39.4894 17.5351 40.4671C17.4713 42.4271 15.9915 43.9808 14.2121 43.9808C14.1774 43.9808 14.1427 43.9799 14.1088 43.979Z" fill="#0095da"/>
<path d="M26.7919 47.6631C27.0995 47.205 27.2497 46.659 27.2497 45.9933C27.2553 39.7425 27.2561 33.416 27.2569 27.8352C27.2569 27.7947 27.2577 27.7534 27.2594 27.713C27.2634 27.5705 27.2674 27.4237 27.223 27.2777C27.2158 27.2531 27.2222 27.2153 27.2295 27.1792L27.2335 27.1555C27.2537 27.0359 27.2287 26.9304 27.1649 26.8653C27.106 26.8055 27.0228 26.7871 26.93 26.8126C26.829 26.8407 26.7314 26.8433 26.6151 26.8433C25.7948 26.8442 24.9746 26.8442 24.1551 26.8425H24.0938C23.9799 26.8433 23.8726 26.8442 23.7636 26.8108C23.6869 26.788 23.615 26.7994 23.5601 26.8433C23.4996 26.8917 23.4657 26.9735 23.4624 27.0737C23.4616 27.1106 23.4616 27.1476 23.4616 27.1854V27.2232C23.4657 28.5817 23.4649 29.9631 23.4641 31.2996C23.4624 33.4336 23.4616 35.6397 23.4818 37.8098C23.4931 39.0056 23.4899 40.2208 23.4875 41.3973C23.4859 41.9381 23.4851 42.478 23.4851 43.0187L23.4883 44.2277C23.4883 45.6381 23.4883 47.0494 23.4883 48.4597C23.4883 48.7235 23.5335 48.7737 23.7725 48.7737C23.871 48.7737 23.9703 48.7745 24.0688 48.7754C24.2044 48.7763 24.3424 48.7772 24.4813 48.7772C24.6581 48.7772 24.8365 48.7754 25.0133 48.771C25.2572 48.7649 25.4832 48.7147 25.6859 48.6215C26.1291 48.4175 26.5013 48.0948 26.7919 47.6631Z" fill="#0095da"/>
<path d="M14.9984 21.8244C15.0283 21.8244 15.0573 21.8236 15.0872 21.8218C15.5926 21.8491 16.1004 21.6442 16.5105 21.2424C16.9578 20.8036 17.2404 20.1872 17.2686 19.5946C17.3292 18.3003 16.2845 17.2311 15.31 17.1387C14.7118 17.0825 14.1337 17.2961 13.6832 17.741C13.2255 18.193 12.9477 18.8375 12.9413 19.4653C12.9348 20.0852 13.1899 20.7095 13.6413 21.1782C14.0393 21.5923 14.5293 21.8244 14.9984 21.8244Z" fill="#0095da"/>
<path d="M53.4525 22.3562C53.505 22.4055 53.5825 22.4213 53.6883 22.4055C53.769 22.3932 53.8457 22.3958 53.9442 22.4055C54.0701 22.4169 54.1606 22.3914 54.2139 22.329C54.2607 22.2745 54.2768 22.1945 54.2623 22.0916C54.2591 22.0687 54.2591 22.0441 54.2591 22.0142C54.2591 21.8656 54.2583 21.7179 54.2575 21.5693C54.2558 21.2035 54.2542 20.8254 54.2575 20.4543C54.2583 20.3339 54.3027 20.2213 54.3826 20.1369C54.4657 20.049 54.5747 20.0015 54.695 20.0033C54.9639 20.0085 55.1544 20.2161 55.1576 20.508C55.1609 20.7955 55.1609 21.0883 55.1601 21.3706V21.7091C55.1601 21.7601 55.1601 21.812 55.1592 21.863C55.1584 21.965 55.1576 22.0705 55.1601 22.1742C55.1641 22.3299 55.2222 22.3967 55.3603 22.4046C55.4588 22.4108 55.5565 22.4134 55.6517 22.4134C55.6977 22.4134 55.7438 22.4125 55.789 22.4116C55.8859 22.409 55.9569 22.3782 55.9989 22.322C56.0401 22.2666 56.053 22.1874 56.0368 22.0872C56.0255 22.016 56.0191 21.943 56.0191 21.8647C56.0191 21.4497 56.0191 21.0356 56.0191 20.6205C56.0191 20.5344 56.0247 20.464 56.0352 20.3981C56.0667 20.2099 56.1716 20.0754 56.3299 20.0191C56.5075 19.9558 56.6682 20.0059 56.7949 20.1642C56.8716 20.2609 56.9063 20.3708 56.9055 20.5212C56.9031 21.0514 56.9031 21.5833 56.9055 22.103C56.9063 22.2173 56.9265 22.2903 56.9709 22.3378C57.0161 22.3861 57.0847 22.4064 57.1937 22.4064C57.2938 22.4055 57.398 22.4037 57.5013 22.4072C57.6224 22.4116 57.6943 22.3914 57.7387 22.3404C57.7807 22.2921 57.7952 22.2208 57.7855 22.1092C57.775 21.9869 57.7799 21.8621 57.7839 21.7416C57.7871 21.6642 57.7895 21.5851 57.7887 21.506C57.7847 21.1288 57.7839 20.7911 57.7871 20.4746C57.7912 20.0305 57.6257 19.6674 57.3084 19.4247C56.8942 19.109 56.4252 19.1029 55.9157 19.4089C55.7543 19.5056 55.6533 19.5047 55.5153 19.4062C55.1479 19.1425 54.783 19.117 54.4318 19.3324C54.4149 19.3429 54.3915 19.3561 54.3689 19.364C54.3204 19.3807 54.2558 19.3895 54.2268 19.3306C54.1549 19.1855 54.0379 19.1891 53.9434 19.1908C53.8828 19.1926 53.8215 19.1917 53.7609 19.1917C53.7125 19.1917 53.6633 19.1908 53.6148 19.1917C53.4089 19.1943 53.3775 19.2286 53.3766 19.4528C53.3758 19.7852 53.3758 20.1176 53.3758 20.4491V22.1092C53.3758 22.2279 53.4009 22.3079 53.4525 22.3562Z" fill="#0095da"/>
<path d="M43.0276 20.829V21.1736C43.0276 21.4805 43.0276 21.7865 43.0276 22.0934C43.0276 22.2217 43.0591 22.3132 43.1196 22.3659C43.1584 22.3994 43.2092 22.4161 43.2698 22.4161C43.3045 22.4161 43.3424 22.4108 43.3836 22.4002C43.4724 22.3774 43.5483 22.3765 43.6307 22.3967C43.6993 22.4143 43.7566 22.4055 43.8002 22.3721C43.8446 22.3387 43.8721 22.2824 43.8817 22.205C43.8866 22.162 43.8858 22.1189 43.885 22.0775C43.885 22.0617 43.8842 22.0468 43.8842 22.0309V21.5421C43.8842 21.178 43.8834 20.814 43.8858 20.45C43.8874 20.231 44.0876 20.0103 44.2911 20.0042C44.4485 19.9998 44.5809 20.0473 44.6713 20.1422C44.7609 20.2372 44.8094 20.3788 44.8094 20.5511C44.8102 20.8228 44.8102 21.0954 44.8094 21.3671C44.8094 21.6221 44.8094 21.8771 44.8094 22.1321C44.8094 22.2428 44.8344 22.3193 44.8861 22.3642C44.9353 22.4073 45.0064 22.4187 45.0968 22.3967C45.1945 22.3739 45.2857 22.3747 45.3834 22.3994C45.4665 22.4205 45.5328 22.4117 45.5812 22.373C45.6304 22.3334 45.6587 22.2657 45.666 22.1707C45.6684 22.1356 45.6676 22.1004 45.6676 22.0644C45.6676 22.0494 45.6668 22.0345 45.6668 22.0195V20.4385C45.6668 20.2099 45.8194 20.093 45.9469 20.0341C46.0607 19.9822 46.2303 19.9532 46.3918 20.1097C46.5225 20.2354 46.5831 20.3981 46.5839 20.6214V20.6689C46.5847 21.1349 46.5855 21.6168 46.5556 22.0899C46.5484 22.2068 46.5726 22.293 46.6283 22.3457C46.6872 22.402 46.7769 22.4169 46.8955 22.3906C46.9666 22.3747 47.0279 22.3739 47.0901 22.387C47.208 22.4117 47.2911 22.4178 47.346 22.3686C47.4009 22.3193 47.4122 22.227 47.4122 22.0951V21.608C47.4122 21.2079 47.4122 20.8087 47.4106 20.4087C47.409 19.9558 47.2144 19.6015 46.8326 19.3553C46.4547 19.1117 46.0333 19.131 45.5804 19.4133C45.4149 19.5162 45.2978 19.5144 45.1485 19.4063C44.8594 19.197 44.5631 19.1434 44.2693 19.2454C44.2232 19.2612 44.1797 19.284 44.1377 19.3069C44.1102 19.3219 44.0828 19.3359 44.0545 19.3491C43.9447 19.3975 43.8922 19.394 43.8599 19.3368C43.7816 19.1961 43.6726 19.19 43.5596 19.1952C43.5031 19.1979 43.4474 19.1979 43.3909 19.197C43.357 19.197 43.3239 19.1961 43.29 19.197C43.0655 19.1996 43.0268 19.2418 43.026 19.481C43.0252 19.7861 43.0252 20.0912 43.026 20.3963V20.7885L43.0276 20.829Z" fill="#0095da"/>
<path d="M48.0434 19.569C48.0491 19.6076 48.0539 19.6437 48.0539 19.6789C48.0523 19.8591 48.0539 20.0402 48.0547 20.2205C48.058 20.5467 48.0604 20.8835 48.0418 21.2141C48.037 21.3003 48.0572 21.3785 48.0757 21.4374C48.175 21.7575 48.3583 22.0283 48.6191 22.2446C48.6885 22.3018 48.7708 22.3431 48.8451 22.358C48.8693 22.3624 48.8936 22.3677 48.9178 22.373C49.0768 22.4064 49.2415 22.4407 49.4167 22.3783L49.4514 22.366C49.5394 22.3352 49.6299 22.3035 49.7066 22.227C49.7493 22.184 49.8067 22.1743 49.8624 22.1998C49.8922 22.213 49.8955 22.2332 49.8906 22.3009C49.8898 22.3158 49.889 22.3308 49.889 22.3449C49.889 22.5251 49.8244 22.6878 49.692 22.8425C49.5919 22.9595 49.4652 23.0026 49.3045 22.9727C49.164 22.9472 49.0413 22.8865 48.9412 22.7933C48.7507 22.6157 48.5254 22.6069 48.3107 22.6236C48.2606 22.6271 48.192 22.6394 48.1653 22.6983C48.1452 22.7423 48.1557 22.7986 48.1984 22.8698C48.3438 23.1142 48.4931 23.305 48.657 23.4528C48.8758 23.6506 49.1172 23.7517 49.3667 23.7517C49.4724 23.7517 49.5798 23.7341 49.688 23.6972C50.2136 23.5205 50.7432 22.9419 50.7383 22.1769C50.7343 21.506 50.7359 20.8237 50.7375 20.1642L50.7383 19.8793V19.8116C50.7375 19.7008 50.7375 19.5953 50.7553 19.4889C50.7714 19.3913 50.7553 19.3078 50.706 19.2498C50.656 19.1891 50.5769 19.161 50.48 19.1689C50.3807 19.1768 50.2757 19.1768 50.1409 19.1689C50.065 19.1636 49.9883 19.1662 49.9399 19.2155C49.8939 19.263 49.8842 19.3412 49.8842 19.4441C49.8834 19.6358 49.8834 19.8275 49.8842 20.02V20.2662L49.8882 20.3102V20.3849C49.8882 20.479 49.8882 20.5731 49.8882 20.6672C49.889 20.8079 49.8906 20.9486 49.8939 21.0892C49.8955 21.1684 49.8939 21.244 49.8527 21.3047C49.7203 21.5034 49.4676 21.6502 49.2028 21.5298C49.0163 21.4445 48.9202 21.2704 48.917 21.0119C48.9129 20.6689 48.9137 20.3199 48.9154 19.9822C48.9162 19.8125 48.9162 19.6437 48.9162 19.474C48.9162 19.3702 48.9081 19.2674 48.8484 19.2102C48.8007 19.1645 48.7305 19.153 48.6053 19.1715C48.5125 19.1847 48.4253 19.1856 48.3292 19.1724C48.2356 19.1592 48.1589 19.1821 48.1056 19.2383C48.0499 19.2973 48.0257 19.3869 48.0354 19.4977C48.037 19.5206 48.0402 19.5443 48.0434 19.569Z" fill="#0095da"/>
<path d="M59.5198 22.3995C59.5747 22.4074 59.6296 22.4109 59.6837 22.4109C60.2052 22.4109 60.7025 22.0663 60.931 21.5273C60.9593 21.4604 60.9617 21.4094 60.9399 21.3699C60.9181 21.3321 60.8769 21.3127 60.8148 21.3101C60.7655 21.3083 60.7171 21.3118 60.6702 21.3153C60.6202 21.3189 60.5726 21.3224 60.5257 21.3206C60.3933 21.3153 60.2876 21.3496 60.1931 21.4314C60.1309 21.485 60.0744 21.522 60.022 21.5448C59.7386 21.6688 59.5198 21.6504 59.3325 21.4859C59.0386 21.2274 58.8747 20.764 59.1743 20.3112C59.4181 19.9419 59.7717 19.8663 60.0978 20.1134C60.3279 20.2875 60.5621 20.3042 60.7809 20.2954C60.8285 20.2936 60.9084 20.291 60.9488 20.2083C60.998 20.1081 60.9399 20.0272 60.9116 19.9885C60.8018 19.8381 60.6815 19.6799 60.5411 19.548C60.2545 19.2789 59.9396 19.1637 59.6038 19.2042C59.2889 19.2429 59.0354 19.3405 58.8279 19.5023C58.5219 19.7414 58.3475 20.0105 58.2805 20.349C58.2628 20.4387 58.262 20.5284 58.2612 20.6146C58.2603 20.6752 58.2603 20.7377 58.2531 20.8001V20.8036C58.2498 20.9223 58.2482 21.063 58.2692 21.2037C58.3637 21.8552 58.9797 22.323 59.5198 22.3995Z" fill="#0095da"/>
<path d="M61.5026 22.1517C61.5034 22.3091 61.5341 22.3961 61.6947 22.4067C61.7787 22.4119 61.8578 22.4146 61.9321 22.4146C61.9918 22.4146 62.0492 22.4128 62.1041 22.4093C62.1848 22.404 62.247 22.375 62.2873 22.3231C62.3301 22.2686 62.3471 22.1904 62.3374 22.0928C62.3317 22.0312 62.3245 21.9494 62.3245 21.8668C62.3253 21.4377 62.3261 21.0095 62.3277 20.5804C62.3285 20.2102 62.3293 19.84 62.3301 19.469C62.3301 19.3696 62.3132 19.308 62.2736 19.2685C62.2332 19.228 62.1727 19.214 62.0726 19.2236C61.9482 19.2351 61.8457 19.2368 61.7512 19.2298C61.6511 19.2219 61.5849 19.2166 61.5438 19.2579C61.5034 19.2984 61.5018 19.3687 61.501 19.4795C61.5002 19.7785 61.5002 20.0774 61.5002 20.3764V20.7844V21.1748C61.5018 21.501 61.5018 21.8263 61.5026 22.1517Z" fill="#0095da"/>
<path d="M61.9104 19.0441C61.912 19.0441 61.9128 19.0441 61.9144 19.0441C62.1381 19.0423 62.3439 18.841 62.3456 18.622C62.3464 18.5218 62.2947 18.4084 62.2043 18.3108C62.109 18.2088 61.9928 18.1516 61.8934 18.1534C61.7005 18.1586 61.4785 18.4163 61.4769 18.6361C61.4761 18.7302 61.514 18.8234 61.5826 18.899C61.6666 18.9904 61.7869 19.0441 61.9104 19.0441Z" fill="#0095da"/>
<path d="M47.8183 40.3826C47.849 42.2467 46.4232 44.0518 44.4243 44.0264C42.5254 44.0017 41.0835 42.4146 41.0803 40.3527C41.077 38.1474 42.6877 36.6702 44.4872 36.6773C46.4353 36.6852 47.8748 38.4824 47.8183 40.3826Z" fill="white"/>
<path d="M63.7398 36.3898C63.7834 38.2038 62.4827 39.5412 61.3145 39.8814C59.5465 40.3967 58.0472 39.3723 57.4458 37.7588C56.6554 35.6389 57.8341 33.4609 59.6563 32.8568C61.6794 32.1859 63.8423 34.1151 63.7398 36.3898Z" fill="white"/>
<path d="M67.934 41.6157C67.2865 41.5928 66.6511 41.4275 66.0142 41.2815C65.8995 41.2552 65.8842 41.1681 65.9455 41.0749C66.0295 40.9474 66.1353 40.8349 66.216 40.7047C67.0112 39.4306 67.4367 38.0299 67.4415 36.4815C67.444 35.7412 67.3939 35.0105 67.1985 34.2974C67.1485 34.1145 67.1904 34.0397 67.3253 34.0881C67.8557 34.2763 68.4168 34.2956 68.9504 34.4723C70.2446 34.9006 71.236 36.3338 71.2828 37.8057C71.3377 39.5309 70.2898 41.0213 68.8729 41.4741C68.7228 41.5216 68.5678 41.5576 68.4128 41.5805C68.2569 41.6034 68.0987 41.6042 67.934 41.6157Z" fill="white"/>
<path d="M29.7129 16.896C29.6297 15.0363 31.0159 13.0447 33.2216 13.0597C35.3166 13.0728 36.6867 14.9229 36.6835 16.8494C36.6802 18.9447 35.2254 20.647 33.2111 20.6716C31.0983 20.6971 29.662 18.7566 29.7129 16.896Z" fill="white"/>
<path d="M14.2316 36.6737C16.0117 36.6455 17.6676 38.3531 17.586 40.4819C17.5142 42.3424 16.1619 44.0641 14.1678 44.0228C12.2334 43.9832 10.8585 42.375 10.848 40.3702C10.8367 38.0858 12.5418 36.6614 14.2316 36.6737Z" fill="white"/>
</g>
<defs>
<filter id="filter0_dd_214_7862" x="0" y="4" width="82" height="60" filterUnits="userSpaceOnUse" color-interpolation-filters="sRGB">
<feFlood flood-opacity="0" result="BackgroundImageFix"/>
<feColorMatrix in="SourceAlpha" type="matrix" values="0 0 0 0 0 0 0 0 0 0 0 0 0 0 0 0 0 0 127 0" result="hardAlpha"/>
<feOffset dy="2"/>
<feGaussianBlur stdDeviation="2"/>
<feComposite in2="hardAlpha" operator="out"/>
<feColorMatrix type="matrix" values="0 0 0 0 0 0 0 0 0 0 0 0 0 0 0 0 0 0 0.04 0"/>
<feBlend mode="normal" in2="BackgroundImageFix" result="effect1_dropShadow_214_7862"/>
<feColorMatrix in="SourceAlpha" type="matrix" values="0 0 0 0 0 0 0 0 0 0 0 0 0 0 0 0 0 0 127 0" result="hardAlpha"/>
<feOffset dy="-1"/>
<feGaussianBlur stdDeviation="0.5"/>
<feComposite in2="hardAlpha" operator="out"/>
<feColorMatrix type="matrix" values="0 0 0 0 0 0 0 0 0 0 0 0 0 0 0 0 0 0 0.02 0"/>
<feBlend mode="normal" in2="effect1_dropShadow_214_7862" result="effect2_dropShadow_214_7862"/>
<feBlend mode="normal" in="SourceGraphic" in2="effect2_dropShadow_214_7862" result="shape"/>
</filter>
</defs>
</svg>
